<mxfile host="app.diagrams.net" modified="2023-03-29T03:05:49.971Z" agent="Mozilla/5.0 (Windows NT 10.0; Win64; x64) AppleWebKit/537.36 (KHTML, like Gecko) Chrome/108.0.0.0 Safari/537.36" version="21.1.1" etag="mHVCz9jmvFvW0vvulfbu" type="github">
  <diagram name="第 1 页" id="VH9MUYLD4NF8i5L5by5n">
    <mxGraphModel>
      <root>
        <mxCell id="0" />
        <mxCell id="1" parent="0" />
      </root>
    </mxGraphModel>
  </diagram>
</mxfile>
